<svg width="84" height="26" viewBox="0 0 84 26" fill="none" xmlns="http://www.w3.org/2000/svg">
<g clip-path="url(#clip0_116_1186)">
<path d="M68.4926 25.8461C66.5632 25.6373 64.5749 24.8775 62.8998 23.709C60.3655 21.9411 58.6618 19.4108 57.8572 16.2197C56.6253 11.3344 58.3332 5.85772 62.0429 2.79719C64.5396 0.737376 67.5775 -0.216803 70.8156 0.041704C74.768 0.357238 78.3925 2.80524 80.4292 6.5348C81.6493 8.7689 82.1705 11.3086 81.9732 14.0579C81.5668 19.7211 77.4957 24.5295 72.1547 25.6546C71.0652 25.8842 69.5678 25.9624 68.4926 25.8461ZM76.746 18.9292V16.7386H73.7261H70.7062L72.5625 15.2468C74.5811 13.6245 75.5416 12.6183 76.0705 11.5717C77.0554 9.62265 76.9734 7.20723 75.8627 5.45292C74.6963 3.61071 72.744 2.67236 70.0777 2.67236C67.8111 2.67236 66.3465 3.25228 64.9934 4.68547C63.9003 5.84333 63.2904 7.26156 63.0207 9.2731L62.9473 9.82076H65.638H68.3286L68.331 9.38839C68.3363 8.43272 68.9581 7.63012 69.6932 7.63012C70.459 7.63012 71.1696 8.32636 71.1705 9.07751C71.1718 10.1797 69.654 11.9542 65.6331 15.5516L62.9721 17.9323V19.5261V21.1198H69.8591H76.746V18.9292Z" fill="black"/>
<path d="M17.9019 25.7744H11.2219V15.9198H6.88573V25.7744H0V0.375732H6.88573V9.82382H11.2219V0.375732H17.9019V25.7744Z" fill="black"/>
<path d="M48.5053 17.9708C51.2159 17.9708 53.4133 15.6999 53.4133 12.8979C53.4133 10.0966 51.2159 7.82537 48.5053 7.82537C45.7943 7.82537 43.5971 10.0966 43.5971 12.8979C43.5971 15.6999 45.7943 17.9708 48.5053 17.9708ZM42.2618 12.8979C42.2618 9.33436 45.0569 6.4452 48.5053 6.4452C51.9535 6.4452 54.7491 9.33436 54.7491 12.8979C54.7491 16.462 51.9535 19.3511 48.5053 19.3511C45.0569 19.3511 42.2618 16.462 42.2618 12.8979ZM33.5681 12.8979C34.3406 12.7968 35.6284 11.8839 36.0821 11.3011C35.9227 12.0237 35.9105 14.1149 36.0969 14.8374C35.579 14.0135 34.3531 12.9994 33.5681 12.8979ZM29.0795 6.06645C30.0607 6.06645 30.8333 7.0675 30.8333 8.20836C30.8333 9.34922 30.0607 10.3509 29.0795 10.3509H25.7071V6.06645H29.0795ZM29.0672 15.5851C30.0482 15.5851 30.821 16.5866 30.821 17.7271C30.821 18.8681 30.0482 19.8693 29.0672 19.8693H25.6948V15.5851H29.0672ZM48.5012 25.8996C55.3728 25.8969 60.9649 19.996 60.9633 12.8929C60.962 5.64002 55.3728 0.00586377 48.5012 0.000492031C41.6375 -0.00461923 38.1304 5.2172 37.2639 7.3249C37.272 4.16085 34.2546 0.426181 30.7251 0.422187H19.3535V25.7734L29.9557 25.7756C34.2302 25.7756 37.2719 21.9475 37.2771 18.665C38.2528 20.7309 41.6375 25.9021 48.5012 25.8996Z" fill="black"/>
</g>
<defs>
<clipPath id="clip0_116_1186">
<rect width="83.8871" height="25.3339" fill="white"/>
</clipPath>
</defs>
</svg>
